<mxfile host="app.diagrams.net" modified="2020-10-03T09:20:24.948Z" agent="5.0 (iPhone; CPU OS 14_0_1 like Mac OS X) AppleWebKit/605.1.15 (KHTML, like Gecko) FxiOS/28.2  Mobile/15E148 Safari/605.1.15" etag="kpsG7PEONzCoTp5gr9y-" version="13.7.7" type="github">
  <diagram id="3-4BPGFL3dUzXfCAytIH" name="Page-1">
    <mxGraphModel dx="629" dy="223" grid="1" gridSize="10" guides="1" tooltips="1" connect="1" arrows="1" fold="1" page="1" pageScale="1" pageWidth="827" pageHeight="1169" math="0" shadow="0">
      <root>
        <mxCell id="0" />
        <mxCell id="1" parent="0" />
        <mxCell id="70R2kYpUsm204gsC4cHF-1" value="" style="html=1;whiteSpace=wrap;shape=isoCube2;backgroundOutline=1;isoAngle=15;" parent="1" vertex="1">
          <mxGeometry x="160" y="80" width="350" height="170" as="geometry" />
        </mxCell>
        <mxCell id="xTh_VX05ksk48on4n9TC-1" value="" style="html=1;whiteSpace=wrap;shape=isoCube2;backgroundOutline=1;isoAngle=15;" vertex="1" parent="1">
          <mxGeometry x="160" y="60" width="350" height="170" as="geometry" />
        </mxCell>
        <mxCell id="xTh_VX05ksk48on4n9TC-2" value="" style="html=1;whiteSpace=wrap;shape=isoCube2;backgroundOutline=1;isoAngle=15;" vertex="1" parent="1">
          <mxGeometry x="160" y="40" width="350" height="170" as="geometry" />
        </mxCell>
        <mxCell id="xTh_VX05ksk48on4n9TC-3" value="" style="html=1;whiteSpace=wrap;shape=isoCube2;backgroundOutline=1;isoAngle=15;" vertex="1" parent="1">
          <mxGeometry x="160" y="20" width="350" height="170" as="geometry" />
        </mxCell>
      </root>
    </mxGraphModel>
  </diagram>
</mxfile>
